HIERARCHY
ROOT Hips
{
	OFFSET 0.000000 0.000000 0.000000
	CHANNELS 6 Xposition Yposition Zposition Xrotation Yrotation Zrotation
	JOINT LeftUpLeg_virtual
	{
		OFFSET 0.000000 0.000000 0.000000
		CHANNELS 3 Xrotation Yrotation Zrotation
		JOINT LeftUpLeg
		{
			OFFSET 11.394100 -6.187798 -0.413800
			CHANNELS 3 Xrotation Yrotation Zrotation
			JOINT LeftLeg
			{
				OFFSET 0.430247 -32.302673 3.732800
				CHANNELS 3 Xrotation Yrotation Zrotation
				JOINT LeftFoot
				{
					OFFSET -0.430247 -48.264931 -6.423300
					CHANNELS 3 Xrotation Yrotation Zrotation
					JOINT LeftToeBase
					{
						OFFSET 4.230900 -16.068199 23.438400
						CHANNELS 3 Xrotation Yrotation Zrotation
						JOINT LeftToe_End
						{
							OFFSET 4.510700 0.695400 19.974600
							CHANNELS 3 Xrotation Yrotation Zrotation
							End Site
							{
								OFFSET 0 0 0
							}
						}
					}
				}
			}
		}
	}
	JOINT RightUpLeg_virtual
	{
		OFFSET 0.000000 0.000000 0.000000
		CHANNELS 3 Xrotation Yrotation Zrotation
		JOINT RightUpLeg
		{
			OFFSET -11.333700 -6.187798 -0.413800
			CHANNELS 3 Xrotation Yrotation Zrotation
			JOINT RightLeg
			{
				OFFSET -0.430392 -32.302628 3.733000
				CHANNELS 3 Xrotation Yrotation Zrotation
				JOINT RightFoot
				{
					OFFSET 0.430392 -48.264973 -6.423500
					CHANNELS 3 Xrotation Yrotation Zrotation
					JOINT RightToeBase
					{
						OFFSET -4.230900 -16.068199 23.438400
						CHANNELS 3 Xrotation Yrotation Zrotation
						JOINT RightToe_End
						{
							OFFSET -4.510700 0.695400 19.974600
							CHANNELS 3 Xrotation Yrotation Zrotation
							End Site
							{
								OFFSET 0 0 0
							}
						}
					}
				}
			}
		}
	}
	JOINT Spine_virtual
	{
		OFFSET 0.000000 0.000000 0.000000
		CHANNELS 3 Xrotation Yrotation Zrotation
		JOINT Spine
		{
			OFFSET -0.002400 12.777504 0.315300
			CHANNELS 3 Xrotation Yrotation Zrotation
			JOINT Spine1
			{
				OFFSET -0.002067 5.816869 0.032633
				CHANNELS 3 Xrotation Yrotation Zrotation
				JOINT Spine1_split
				{
					OFFSET -0.002067 5.816869 0.032633
					CHANNELS 3 Xrotation Yrotation Zrotation
					JOINT Spine2
					{
						OFFSET -0.002067 5.816869 0.032633
						CHANNELS 3 Xrotation Yrotation Zrotation
						JOINT Neck_virtual
						{
							OFFSET 0.000000 0.000000 0.000000
							CHANNELS 3 Xrotation Yrotation Zrotation
							JOINT Neck
							{
								OFFSET -0.003700 21.199493 -0.826900
								CHANNELS 3 Xrotation Yrotation Zrotation
								JOINT Head
								{
									OFFSET 0.000000 20.442200 4.834800
									CHANNELS 3 Xrotation Yrotation Zrotation
									JOINT HeadTop_End
									{
										OFFSET 0.000000 34.668396 4.968400
										CHANNELS 3 Xrotation Yrotation Zrotation
										End Site
										{
											OFFSET 0 0 0
										}
									}
								}
							}
						}
						JOINT LeftShoulder_virtual
						{
							OFFSET 0.000000 0.000000 0.000000
							CHANNELS 3 Xrotation Yrotation Zrotation
							JOINT LeftShoulder
							{
								OFFSET 3.288150 8.794197 -1.372250
								CHANNELS 3 Xrotation Yrotation Zrotation
								JOINT LeftShoulder_split
								{
									OFFSET 3.288150 8.794197 -1.372250
									CHANNELS 3 Xrotation Yrotation Zrotation
									JOINT LeftArm
									{
										OFFSET 11.953299 -2.279007 -0.146200
										CHANNELS 3 Xrotation Yrotation Zrotation
										JOINT LeftForeArm
										{
											OFFSET 18.448900 0.000000 0.000000
											CHANNELS 3 Xrotation Yrotation Zrotation
											JOINT LeftHand
											{
												OFFSET 29.527798 0.000000 0.000000
												CHANNELS 3 Xrotation Yrotation Zrotation
												End Site
												{
													OFFSET 0 0 0
												}
											}
										}
									}
								}
							}
						}
						JOINT RightShoulder_virtual
						{
							OFFSET 0.000000 0.000000 0.000000
							CHANNELS 3 Xrotation Yrotation Zrotation
							JOINT RightShoulder
							{
								OFFSET -3.249400 8.794197 -1.372250
								CHANNELS 3 Xrotation Yrotation Zrotation
								JOINT RightShoulder_split
								{
									OFFSET -3.249400 8.794197 -1.372250
									CHANNELS 3 Xrotation Yrotation Zrotation
									JOINT RightArm
									{
										OFFSET -11.953299 -2.279007 -0.146200
										CHANNELS 3 Xrotation Yrotation Zrotation
										JOINT RightForeArm
										{
											OFFSET -18.448900 0.000000 0.000000
											CHANNELS 3 Xrotation Yrotation Zrotation
											JOINT RightHand
											{
												OFFSET -29.527802 0.000000 0.000000
												CHANNELS 3 Xrotation Yrotation Zrotation
												End Site
												{
													OFFSET 0 0 0
												}
											}
										}
									}
								}
							}
						}
					}
				}
			}
		}
	}
}
MOTION
Frames: 4
Frame Time: 0.03333333
3.110940 88.011490 26.878445 0.000000 0.000000 0.000000 5.600096 -52.767419 6.964440 -6.710497 14.939645 -5.678774 43.582501 -8.655866 -7.879751 -31.760861 -8.188340 15.739975 -5.175301 -5.767743 1.084218 0.000000 0.000000 0.000000 5.600096 -52.767419 6.964440 -60.776034 -2.049050 -1.947408 28.029742 11.673653 6.147531 -4.720869 4.842932 10.872601 1.914858 -4.655924 7.674919 0.000000 0.000000 0.000000 5.600096 -52.767419 6.964440 11.574376 -6.018014 5.151931 6.897506 -6.951603 1.878610 0.000000 0.000000 0.000000 0.000000 0.000000 0.000000 -4.209817 -6.549580 2.113407 6.754100 41.480449 -10.680610 1.712230 25.842646 -7.475042 0.000000 0.000000 0.000000 -4.209817 -6.549580 2.113407 1.270524 -5.316210 -0.766515 0.000000 0.000000 0.000000 -4.829685 -2.597539 -36.315091 -0.000760 -23.380844 -2.655207 0.000000 0.000000 0.000000 -4.209817 -6.549580 2.113407 10.009424 -5.246974 3.894575 0.000000 0.000000 0.000000 5.281028 -0.456758 74.450346 -9.017188 16.459801 6.074801 0.000000 0.000000 0.000000 
5.110295 88.824448 24.879162 0.000000 0.000000 0.000000 6.127805 -54.292173 7.806285 -5.718432 13.902229 -7.070558 39.231924 -7.236415 -7.467271 -34.876862 -6.328866 11.777534 3.289609 -11.266850 4.065011 0.000000 0.000000 0.000000 6.127805 -54.292173 7.806285 -60.327537 -0.631800 -1.502467 29.375537 11.066151 3.348429 2.104370 5.444287 12.903831 3.856319 -3.668711 7.269365 0.000000 0.000000 0.000000 6.127805 -54.292173 7.806285 11.434345 -5.745245 4.927360 6.628109 -6.390930 1.563489 0.000000 0.000000 0.000000 0.000000 0.000000 0.000000 -4.464396 -5.939060 1.913257 4.365868 41.687465 -10.666469 3.702047 25.152701 -8.050837 0.000000 0.000000 0.000000 -4.464396 -5.939060 1.913257 1.126230 -5.641833 -0.722995 0.000000 0.000000 0.000000 -9.346835 -1.665564 -36.045312 -0.000767 -28.424317 -2.537049 0.000000 0.000000 0.000000 -4.464396 -5.939060 1.913257 10.045353 -5.469084 3.772895 0.000000 0.000000 0.000000 4.495819 3.336464 70.727640 -5.588851 20.793980 8.779312 0.000000 0.000000 0.000000 
6.586180 89.901558 22.940493 0.000000 0.000000 0.000000 4.952696 -54.685893 6.427739 -6.286225 13.069835 -7.443099 38.584930 -5.939688 -6.059376 -35.853381 -6.673348 11.268993 9.238690 -13.473967 4.327400 0.000000 0.000000 0.000000 4.952696 -54.685893 6.427739 -57.302480 1.060999 -1.835427 29.778040 9.399412 0.970593 7.690846 5.412294 14.912048 6.015214 -2.428047 6.624644 0.000000 0.000000 0.000000 4.952696 -54.685893 6.427739 11.531685 -5.562411 4.854653 6.834368 -6.010252 1.594518 0.000000 0.000000 0.000000 0.000000 0.000000 0.000000 -4.251022 -5.571454 2.017434 3.703592 41.886948 -11.064480 4.937528 24.429753 -7.830160 0.000000 0.000000 0.000000 -4.251022 -5.571454 2.017434 0.973885 -5.732990 -0.462230 0.000000 0.000000 0.000000 -11.896128 -1.914708 -36.295793 -0.001019 -33.209042 -3.280020 0.000000 0.000000 0.000000 -4.251022 -5.571454 2.017434 10.043558 -5.196813 4.149162 0.000000 0.000000 0.000000 3.853517 6.445245 65.962525 -1.857273 25.215416 11.159685 0.000000 0.000000 0.000000 
7.653577 91.069206 21.296534 0.000000 0.000000 0.000000 4.642619 -55.381250 5.906299 -8.279234 12.817469 -6.531117 38.833734 -5.718447 -5.565746 -33.374688 -5.816169 8.931284 8.211492 -14.308293 5.877182 0.000000 0.000000 0.000000 4.642619 -55.381250 5.906299 -54.675859 1.070387 -4.262370 30.670647 8.376488 0.336000 11.132689 5.228677 17.584734 4.508791 -2.478135 6.409592 0.000000 0.000000 0.000000 4.642619 -55.381250 5.906299 11.291354 -5.236723 4.720370 6.364876 -5.355539 1.539464 0.000000 0.000000 0.000000 0.000000 0.000000 0.000000 -4.708431 -4.918502 2.090039 6.955228 41.759203 -11.922296 5.203320 23.619173 -8.061736 0.000000 0.000000 0.000000 -4.708431 -4.918502 2.090039 0.810788 -5.278866 -1.330830 0.000000 0.000000 0.000000 -12.283251 -3.393827 -36.663783 -0.001109 -36.423234 -3.701650 0.000000 0.000000 0.000000 -4.708431 -4.918502 2.090039 9.944002 -4.639684 4.134232 0.000000 0.000000 0.000000 4.256471 7.934856 61.439963 1.512782 29.803592 11.908863 0.000000 0.000000 0.000000 
